#!OML:ASF H:\BabyWalks\Project 1\Capture day 1\Session 1\baby.ASF
:FULLY-SPECIFIED
:DEGREES
445
root 8.76545 17.8925 15.887 -159.902 36.4245 -175.287
lowerback 24.3947 -3.26141 1.88879
upperback 4.67454 -2.92966 1.75927
thorax -8.40392 -1.14781 1.72151
lowerneck -1.59736 1.13444 5.03065
upperneck -8.65864 1.65605 -2.03779
head -2.41517 0.828 -1.54724
rclavicle 1.74931e-014 -5.80451e-014
rhumerus -50.2344 10.0607 -82.1814
rradius 48.6907
rwrist -4.19395
rhand -7.20388 -16.3483
rfingers 7.12502
rthumb 18.6747 -45.4719
lclavicle 1.74931e-014 -5.80451e-014
lhumerus -33.4273 -17.3007 83.0676
lradius 77.8606
lwrist 0.170578
lhand -16.9212 0.788979
lfingers 7.12502
lthumb 9.3114 30.5633
rfemur -31.7263 12.9874 14.5783
rtibia 33.2999
rfoot -21.2938 -4.71118
rtoes -21.5349
lfemur -24.9143 -16.9556 -14.7931
ltibia 31.0256
lfoot -20.7142 -12.7234
ltoes 9.46426
446
root 8.86669 17.9221 15.7901 -159.925 35.8223 -175.728
lowerback 24.1982 -3.25038 2.07954
upperback 4.669 -2.84802 1.96921
thorax -8.30815 -1.10992 1.80914
lowerneck -1.49734 0.895666 4.99931
upperneck -8.76256 1.32265 -2.28239
head -2.48047 0.667793 -1.62028
rclavicle 9.93923e-015 -1.47101e-014
rhumerus -50.1592 10.1233 -81.6873
rradius 48.2893
rwrist -4.48148
rhand -6.232 -16.8026
rfingers 7.12502
rthumb 19.6093 -45.8336
lclavicle 9.93923e-015 -1.47101e-014
lhumerus -33.5557 -18.305 83.8225
lradius 80.3122
lwrist 0.447381
lhand -16.9079 0.670066
lfingers 7.12502
lthumb 9.32422 30.4439
rfemur -32.357 13.1982 13.765
rtibia 31.3031
rfoot -21.0938 -5.14042
rtoes -21.4441
lfemur -24.3876 -16.6255 -15.1179
ltibia 30.1955
lfoot -20.2283 -13.7278
ltoes 10.1
447
root 8.97018 17.9486 15.691 -159.963 35.2933 -176.174
lowerback 23.9627 -3.20436 2.25446
upperback 4.66343 -2.73109 2.15998
thorax -8.1929 -1.05564 1.8722
lowerneck -1.42081 0.643445 4.99435
upperneck -8.80734 0.965865 -2.5571
head -2.52395 0.496004 -1.70619
rclavicle -1.03169e-013 6.20208e-014
rhumerus -50.0754 10.1042 -81.1838
rradius 47.854
rwrist -4.72973
rhand -5.38379 -17.2342
rfingers 7.12502
rthumb 20.4246 -46.18
lclavicle -1.03169e-013 6.20208e-014
lhumerus -33.8063 -19.1911 84.4941
lradius 82.6432
lwrist 0.784544
lhand -16.8618 0.558736
lfingers 7.12502
lthumb 9.36869 30.3305
rfemur -32.943 13.2377 13.055
rtibia 29.5074
rfoot -20.8176 -5.57413
rtoes -21.3082
lfemur -23.8303 -16.2083 -15.47
ltibia 29.3839
lfoot -19.7326 -14.7868
ltoes 10.7771
448
root 9.07499 17.9717 15.5898 -160.042 34.8322 -176.642
lowerback 23.7119 -3.12765 2.40617
upperback 4.65601 -2.5854 2.32812
thorax -8.07204 -0.987674 1.9147
lowerneck -1.36574 0.377805 5.01058
upperneck -8.79078 0.586592 -2.85845
head -2.5455 0.312928 -1.80317
rclavicle 9.14409e-014 -5.35725e-014
rhumerus -49.9939 10.0018 -80.6693
rradius 47.3931
rwrist -4.91523
rhand -4.67225 -17.5973
rfingers 7.12502
rthumb 21.1083 -46.4683
lclavicle 9.14409e-014 -5.35725e-014
lhumerus -34.1769 -19.9506 85.0901
lradius 84.8171
lwrist 1.21705
lhand -16.8172 0.347744
lfingers 7.12502
lthumb 9.41169 30.1176
rfemur -33.4712 13.1027 12.453
rtibia 27.9552
rfoot -20.5108 -6.0529
rtoes -21.1526
lfemur -23.2362 -15.7331 -15.866
ltibia 28.603
lfoot -19.2219 -15.8747
ltoes 11.5221
449
root 9.18093 17.991 15.4866 -160.169 34.4196 -177.125
lowerback 23.4558 -3.02709 2.54896
upperback 4.64812 -2.41489 2.47626
thorax -7.94971 -0.907878 1.93333
lowerneck -1.32445 0.0968556 5.05565
upperneck -8.72372 0.183441 -3.19015
head -2.55069 0.117639 -1.91431
rclavicle 2.59631e-014 2.45375e-015
rhumerus -49.9254 9.81453 -80.1467
rradius 46.9178
rwrist -5.01841
rhand -4.12054 -17.8883
rfingers 7.12502
rthumb 21.6382 -46.6992
lclavicle 2.59631e-014 2.45375e-015
lhumerus -34.6574 -20.5832 85.617
lradius 86.7953
lwrist 1.74937
lhand -16.7867 0.0516201
lfingers 7.12502
lthumb 9.44115 29.8202
rfemur -33.9287 12.813 11.9755
rtibia 26.6748
rfoot -20.2247 -6.61162
rtoes -20.9279
lfemur -22.6085 -15.2359 -16.2924
ltibia 27.8737
lfoot -18.6864 -16.961
ltoes 12.3006
